<svg xmlns="http://www.w3.org/2000/svg" width="78.108" height="71.087" viewBox="0 0 78.108 71.087">
  <g id="error" transform="translate(0 -23.245)">
    <path id="Path_5564" data-name="Path 5564" d="M81.8,82.383l-26.473-45.9a11.435,11.435,0,0,0-19.829,0L9.029,82.383a11.456,11.456,0,0,0,9.915,17.174H71.89A11.456,11.456,0,0,0,81.8,82.383Z" transform="translate(-6.363 -6.362)" fill="#6a60da"/>
    <path id="Path_5565" data-name="Path 5565" d="M287.755,119.418,261.449,73.444A5.32,5.32,0,0,0,257,70.759l22.37,56.682h3.784a5.362,5.362,0,0,0,4.6-8.022Z" transform="translate(-217.555 -40.31)" fill="#fae24a"/>
    <path id="Path_5566" data-name="Path 5566" d="M105.572,119.4a6.005,6.005,0,0,1,.6,2.668c0,2.951-2.038,5.355-4.543,5.355H52.807a5.362,5.362,0,0,1-4.6-8.023L74.513,73.428a5.322,5.322,0,0,1,4.6-2.688c.05,0,.1,0,.152,0a4.519,4.519,0,0,1,3.786,2.685Z" transform="translate(-40.298 -40.294)" fill="#fae24a"/>
    <path id="Path_5567" data-name="Path 5567" d="M256,351.255v7.581a3.791,3.791,0,1,0,0-7.581Z" transform="translate(-216.934 -277.877)" fill="#6a60da"/>
    <path id="Path_5568" data-name="Path 5568" d="M234.79,351.255c.418,0,.758,1.7.758,3.791s-.34,3.791-.758,3.791a3.791,3.791,0,0,1,0-7.581Z" transform="translate(-195.746 -277.877)" fill="#6a60da"/>
    <path id="Path_5569" data-name="Path 5569" d="M256,136.259v28.05a3.791,3.791,0,0,0,3.791-3.791V140.049A3.79,3.79,0,0,0,256,136.259Z" transform="translate(-216.934 -95.675)" fill="#6a60da"/>
    <path id="Path_5570" data-name="Path 5570" d="M234.79,136.26c.418,0,.758,1.7.758,3.79v20.469c0,2.092-.34,3.79-.758,3.79a3.791,3.791,0,0,1-3.79-3.79V140.05A3.79,3.79,0,0,1,234.79,136.26Z" transform="translate(-195.746 -95.676)" fill="#6a60da"/>
    <path id="Path_5571" data-name="Path 5571" d="M76.426,75.444,49.958,29.554a12.577,12.577,0,0,0-21.807,0L1.682,75.444a12.6,12.6,0,0,0,10.9,18.887H65.522a12.6,12.6,0,0,0,10.9-18.887Zm-10.9,16.6H12.586A10.307,10.307,0,0,1,3.664,76.59L30.132,30.7a10.29,10.29,0,0,1,17.843,0L74.444,76.59a10.307,10.307,0,0,1-8.922,15.451Z" transform="translate(0 0)" fill="#1a1a1a"/>
    <path id="Path_5572" data-name="Path 5572" d="M78.615,66.5a6.484,6.484,0,0,0-11.251,0L55.26,87.5a1.146,1.146,0,1,0,1.984,1.147l12.1-20.993a4.195,4.195,0,0,1,7.283,0l26.5,45.958a4.138,4.138,0,0,1,.559,2.093,4.208,4.208,0,0,1-4.2,4.206h-53a4.208,4.208,0,0,1-4.2-4.206,4.138,4.138,0,0,1,.559-2.093l12.1-20.993a1.146,1.146,0,1,0-1.984-1.147l-12.1,20.993A6.4,6.4,0,0,0,40,115.7a6.5,6.5,0,0,0,6.491,6.5h53a6.5,6.5,0,0,0,6.491-6.5,6.405,6.405,0,0,0-.866-3.24Z" transform="translate(-33.935 -33.934)" fill="#1a1a1a"/>
    <path id="Path_5573" data-name="Path 5573" d="M228.428,159.079a4.933,4.933,0,0,0,4.928-4.928V133.683a4.928,4.928,0,0,0-9.855,0v20.469A4.933,4.933,0,0,0,228.428,159.079Zm-2.653-25.4a2.653,2.653,0,0,1,5.307,0v20.469a2.653,2.653,0,1,1-5.307,0Z" transform="translate(-189.374 -89.311)" fill="#1a1a1a"/>
    <path id="Path_5574" data-name="Path 5574" d="M228.428,353.61a4.928,4.928,0,1,0-4.928-4.928A4.933,4.933,0,0,0,228.428,353.61Zm0-7.581a2.653,2.653,0,1,1-2.653,2.653A2.656,2.656,0,0,1,228.428,346.029Z" transform="translate(-189.374 -271.509)" fill="#1a1a1a"/>
  </g>
</svg>
