<svg xmlns="http://www.w3.org/2000/svg" width="49.996" height="52.958" viewBox="0 0 49.996 52.958"><defs><style>.a{fill:#06d6d8;}.b{fill:#fff;}.c{fill:#fae24a;}.d{fill:#6a60da;}</style></defs><g transform="translate(-11.763 0)"><g transform="translate(13.013 14.409)"><path class="a" d="M69.185,250.268v15.92a4.6,4.6,0,0,1-4.6,4.6H26.294a4.6,4.6,0,0,1-4.6-4.6v-5.723L33.2,252.11a5.263,5.263,0,0,1,6.578.329l7.5,6.513a5.263,5.263,0,0,0,6.118.526Z" transform="translate(-21.689 -233.164)"/><path class="b" d="M69.184,119.037v12.5L53.4,140.746a5.263,5.263,0,0,1-6.118-.526l-7.5-6.513a5.263,5.263,0,0,0-6.578-.329l-11.512,8.355v-22.7a4.6,4.6,0,0,1,4.6-4.6H64.579A4.6,4.6,0,0,1,69.184,119.037Zm-14.6,7.1a4.539,4.539,0,1,0-4.539,4.539h0A4.539,4.539,0,0,0,54.58,126.141Z" transform="translate(-21.688 -114.432)"/><circle class="c" cx="4.539" cy="4.539" r="4.539" transform="translate(23.814 7.17)"/></g><g transform="translate(11.763 0)"><path class="d" d="M206.222,172.117a5.855,5.855,0,1,1,5.855-5.855,5.855,5.855,0,0,1-5.855,5.855Zm0-9.078A3.223,3.223,0,0,0,203,166.262h0a3.223,3.223,0,1,0,3.223-3.223Z" transform="translate(-176.619 -140.209)"/><path class="d" d="M61.759,107.814a5.921,5.921,0,0,0-5.921-5.921H17.684a5.921,5.921,0,0,0-5.921,5.921V136.1a5.921,5.921,0,0,0,5.921,5.921H55.838a5.921,5.921,0,0,0,5.921-5.921V107.814Zm-44.141-3.289H55.9a3.5,3.5,0,0,1,3.223,3.618v11.644L44,128.667a3.881,3.881,0,0,1-4.539-.395l-7.5-6.578a6.513,6.513,0,0,0-8.157-.329l-9.407,6.842V108.142A3.5,3.5,0,0,1,17.618,104.524ZM55.9,140.048H17.618a3.5,3.5,0,0,1-3.223-3.618V131.5L25.38,123.47a3.881,3.881,0,0,1,4.868.263l7.5,6.513a6.579,6.579,0,0,0,7.565.724l13.815-8.157V136.43A3.5,3.5,0,0,1,55.9,140.048Z" transform="translate(-11.763 -89.063)"/><path class="d" d="M79.583,54.878H38.665a1.316,1.316,0,0,1-1.316-1.316,1.25,1.25,0,0,1,1.18-1.316,1.273,1.273,0,0,1,.135,0H79.583a1.25,1.25,0,0,1,1.316,1.18,1.273,1.273,0,0,1,0,.135A1.316,1.316,0,0,1,79.583,54.878Z" transform="translate(-34.126 -45.667)"/><path class="d" d="M99.127,2.633H64.788a1.316,1.316,0,0,1-1.316-1.316A1.25,1.25,0,0,1,64.652,0a1.275,1.275,0,0,1,.135,0H99.127a1.25,1.25,0,0,1,1.316,1.18,1.273,1.273,0,0,1,0,.135A1.316,1.316,0,0,1,99.127,2.633Z" transform="translate(-56.959 0)"/></g></g></svg>